%TF.GenerationSoftware,KiCad,Pcbnew,7.0.10-rc1*%
%TF.CreationDate,2026-10-05T21:56:39+05:30*%
%TF.ProjectId,WGM-Audio-mp3-player ,57474d2d-4175-4646-996f-2d6d70332d70,rev?*%
%TF.SameCoordinates,Original*%
%TF.FileFunction,Legend,Top*%
%TF.FilePolarity,Positive*%
%FSLAX46Y46*%
G04 Gerber Fmt 4.6, Leading zero omitted, Abs format (unit mm)*
G04 Created by KiCad (PCBNEW 7.0.10-rc1) date 2026-10-05 21:56:39*
%MOMM*%
%LPD*%
G01*
G04 APERTURE LIST*
%ADD10C,0.150000*%
%ADD11C,0.100000*%
%ADD12C,0.120000*%
%TA.AperFunction,Profile*%
%ADD13C,0.100000*%
%TD*%
G04 APERTURE END LIST*
D10*
X186154819Y-64833333D02*
X185678628Y-65166666D01*
X186154819Y-65404761D02*
X185154819Y-65404761D01*
X185154819Y-65404761D02*
X185154819Y-65023809D01*
X185154819Y-65023809D02*
X185202438Y-64928571D01*
X185202438Y-64928571D02*
X185250057Y-64880952D01*
X185250057Y-64880952D02*
X185345295Y-64833333D01*
X185345295Y-64833333D02*
X185488152Y-64833333D01*
X185488152Y-64833333D02*
X185583390Y-64880952D01*
X185583390Y-64880952D02*
X185631009Y-64928571D01*
X185631009Y-64928571D02*
X185678628Y-65023809D01*
X185678628Y-65023809D02*
X185678628Y-65404761D01*
X185631009Y-64404761D02*
X185631009Y-64071428D01*
X186154819Y-63928571D02*
X186154819Y-64404761D01*
X186154819Y-64404761D02*
X185154819Y-64404761D01*
X185154819Y-64404761D02*
X185154819Y-63928571D01*
X185631009Y-63166666D02*
X185631009Y-63499999D01*
X186154819Y-63499999D02*
X185154819Y-63499999D01*
X185154819Y-63499999D02*
X185154819Y-63023809D01*
X185154819Y-62499999D02*
X185392914Y-62499999D01*
X185297676Y-62738094D02*
X185392914Y-62499999D01*
X185392914Y-62499999D02*
X185297676Y-62261904D01*
X185583390Y-62642856D02*
X185392914Y-62499999D01*
X185392914Y-62499999D02*
X185583390Y-62357142D01*
X185154819Y-61738094D02*
X185392914Y-61738094D01*
X185297676Y-61976189D02*
X185392914Y-61738094D01*
X185392914Y-61738094D02*
X185297676Y-61499999D01*
X185583390Y-61880951D02*
X185392914Y-61738094D01*
X185392914Y-61738094D02*
X185583390Y-61595237D01*
D11*
%TO.C,U1*%
X78740000Y-76200000D02*
X143740000Y-76200000D01*
X143740000Y-76200000D02*
X143740000Y-118200000D01*
X143740000Y-118200000D02*
X78740000Y-118200000D01*
X78740000Y-118200000D02*
X78740000Y-76200000D01*
%TO.C,U*%
X182820000Y-94080000D02*
X162820000Y-94080000D01*
X162820000Y-94080000D02*
X162820000Y-119080000D01*
X162820000Y-119080000D02*
X182820000Y-119080000D01*
X182820000Y-119080000D02*
X182820000Y-94080000D01*
D12*
%TO.C,REF\u002A\u002A*%
X188600000Y-68100000D02*
X188600000Y-66700000D01*
X192400000Y-68100000D02*
X188600000Y-68100000D01*
X192400000Y-68100000D02*
X192400000Y-68100000D01*
X192400000Y-66400000D02*
X192400000Y-68100000D01*
X192700000Y-66400000D02*
X192400000Y-66400000D01*
X192400000Y-65600000D02*
X192700000Y-65600000D01*
X192700000Y-65600000D02*
X192700000Y-66400000D01*
X193000000Y-65500000D02*
X193000000Y-65500000D01*
X193500000Y-65500000D02*
X193000000Y-65500000D01*
X193800000Y-65500000D02*
X193800000Y-65500000D01*
X194300000Y-65500000D02*
X193800000Y-65500000D01*
X194300000Y-65500000D02*
X194300000Y-65000000D01*
X188600000Y-65300000D02*
X188600000Y-65300000D01*
X194300000Y-65000000D02*
X194300000Y-65000000D01*
X194300000Y-64700000D02*
X194300000Y-64200000D01*
X188600000Y-64200000D02*
X188600000Y-65300000D01*
X194300000Y-64200000D02*
X194300000Y-64200000D01*
X192400000Y-63900000D02*
X192400000Y-65600000D01*
X192700000Y-63900000D02*
X192400000Y-63900000D01*
X194300000Y-63900000D02*
X194300000Y-63900000D01*
X192400000Y-63100000D02*
X192700000Y-63100000D01*
X192700000Y-63100000D02*
X192700000Y-63900000D01*
X194300000Y-63100000D02*
X194300000Y-63900000D01*
X188600000Y-62800000D02*
X188600000Y-62800000D01*
X194300000Y-62800000D02*
X194300000Y-62800000D01*
X194300000Y-62300000D02*
X194300000Y-62800000D01*
X194300000Y-62000000D02*
X194300000Y-62000000D01*
X188600000Y-61700000D02*
X188600000Y-62800000D01*
X193000000Y-61500000D02*
X193000000Y-61500000D01*
X193500000Y-61500000D02*
X193000000Y-61500000D01*
X193800000Y-61500000D02*
X193800000Y-61500000D01*
X194300000Y-61500000D02*
X194300000Y-62000000D01*
X194300000Y-61500000D02*
X193800000Y-61500000D01*
X192400000Y-61400000D02*
X192400000Y-63100000D01*
X192700000Y-61400000D02*
X192400000Y-61400000D01*
X192400000Y-60600000D02*
X192700000Y-60600000D01*
X192700000Y-60600000D02*
X192700000Y-61400000D01*
X188600000Y-60300000D02*
X188600000Y-58900000D01*
X188600000Y-58900000D02*
X192400000Y-58900000D01*
X192400000Y-58900000D02*
X192400000Y-60600000D01*
%TD*%
D13*
X76200000Y-55880000D02*
X195580000Y-55880000D01*
X195580000Y-119380000D01*
X76200000Y-119380000D01*
X76200000Y-55880000D01*
M02*
