%TF.GenerationSoftware,KiCad,Pcbnew,7.0.10-rc1*%
%TF.CreationDate,2026-10-05T21:56:39+05:30*%
%TF.ProjectId,WGM-Audio-mp3-player ,57474d2d-4175-4646-996f-2d6d70332d70,rev?*%
%TF.SameCoordinates,Original*%
%TF.FileFunction,Copper,L1,Top*%
%TF.FilePolarity,Positive*%
%FSLAX46Y46*%
G04 Gerber Fmt 4.6, Leading zero omitted, Abs format (unit mm)*
G04 Created by KiCad (PCBNEW 7.0.10-rc1) date 2026-10-05 21:56:39*
%MOMM*%
%LPD*%
G01*
G04 APERTURE LIST*
%ADD10C,0.300000*%
%TA.AperFunction,NonConductor*%
%ADD11C,0.300000*%
%TD*%
%TA.AperFunction,ComponentPad*%
%ADD12C,1.524000*%
%TD*%
%TA.AperFunction,SMDPad,CuDef*%
%ADD13R,2.500000X1.250000*%
%TD*%
%TA.AperFunction,Conductor*%
%ADD14C,0.250000*%
%TD*%
%TA.AperFunction,Profile*%
%ADD15C,0.100000*%
%TD*%
G04 APERTURE END LIST*
D10*
D11*
X145191653Y-59260828D02*
X145548796Y-60760828D01*
X145548796Y-60760828D02*
X145834510Y-59689400D01*
X145834510Y-59689400D02*
X146120225Y-60760828D01*
X146120225Y-60760828D02*
X146477368Y-59260828D01*
X147048796Y-60189400D02*
X148191654Y-60189400D01*
X149691654Y-59332257D02*
X149548797Y-59260828D01*
X149548797Y-59260828D02*
X149334511Y-59260828D01*
X149334511Y-59260828D02*
X149120225Y-59332257D01*
X149120225Y-59332257D02*
X148977368Y-59475114D01*
X148977368Y-59475114D02*
X148905939Y-59617971D01*
X148905939Y-59617971D02*
X148834511Y-59903685D01*
X148834511Y-59903685D02*
X148834511Y-60117971D01*
X148834511Y-60117971D02*
X148905939Y-60403685D01*
X148905939Y-60403685D02*
X148977368Y-60546542D01*
X148977368Y-60546542D02*
X149120225Y-60689400D01*
X149120225Y-60689400D02*
X149334511Y-60760828D01*
X149334511Y-60760828D02*
X149477368Y-60760828D01*
X149477368Y-60760828D02*
X149691654Y-60689400D01*
X149691654Y-60689400D02*
X149763082Y-60617971D01*
X149763082Y-60617971D02*
X149763082Y-60117971D01*
X149763082Y-60117971D02*
X149477368Y-60117971D01*
X150405939Y-60189400D02*
X151548797Y-60189400D01*
X152263082Y-60760828D02*
X152263082Y-59260828D01*
X152263082Y-59260828D02*
X152763082Y-60332257D01*
X152763082Y-60332257D02*
X153263082Y-59260828D01*
X153263082Y-59260828D02*
X153263082Y-60760828D01*
D12*
%TO.P,U1,1*%
%TO.N,N/C*%
X102740000Y-77400000D03*
X109740000Y-77400000D03*
%TO.P,U1,2*%
X104740000Y-77400000D03*
X111740000Y-77400000D03*
%TO.P,U1,5*%
X124740000Y-77400000D03*
%TO.P,U1,6*%
X128740000Y-77400000D03*
%TO.P,U1,7*%
X130740000Y-77400000D03*
%TO.P,U1,9*%
X126740000Y-77400000D03*
%TD*%
%TO.P,U,1*%
%TO.N,N/C*%
X171920000Y-95080000D03*
%TO.P,U,2*%
X174320000Y-95080000D03*
%TO.P,U,3*%
X165360000Y-116540000D03*
%TO.P,U,4*%
X165360000Y-114000000D03*
%TD*%
D13*
%TO.P,REF\u002A\u002A,1*%
%TO.N,N/C*%
X187750000Y-66000000D03*
%TO.P,REF\u002A\u002A,2*%
X187750000Y-63500000D03*
%TO.P,REF\u002A\u002A,3*%
X187750000Y-61000000D03*
%TD*%
D14*
%TO.N,*%
X147320000Y-116840000D02*
X147620000Y-116540000D01*
X160020000Y-66040000D02*
X160060000Y-66000000D01*
X160020000Y-114300000D02*
X160020000Y-66040000D01*
X111760000Y-73660000D02*
X147320000Y-73660000D01*
X109740000Y-74180000D02*
X109740000Y-77400000D01*
X165360000Y-114000000D02*
X160320000Y-114000000D01*
X111740000Y-73680000D02*
X111760000Y-73660000D01*
X185420000Y-63500000D02*
X119380000Y-63500000D01*
X160060000Y-66000000D02*
X187750000Y-66000000D01*
X160320000Y-114000000D02*
X160020000Y-114300000D01*
X111740000Y-77400000D02*
X111740000Y-73680000D01*
X119380000Y-63500000D02*
X109220000Y-73660000D01*
X147620000Y-116540000D02*
X165360000Y-116540000D01*
X147320000Y-73660000D02*
X147320000Y-116840000D01*
X109220000Y-73660000D02*
X109740000Y-74180000D01*
%TD*%
D15*
X76200000Y-55880000D02*
X195580000Y-55880000D01*
X195580000Y-119380000D01*
X76200000Y-119380000D01*
X76200000Y-55880000D01*
M02*
